<svg width="39" height="32" viewBox="0 0 39 32" fill="none" xmlns="http://www.w3.org/2000/svg">
<path d="M38.4049 4.22834C37.0132 4.845 35.5182 5.26167 33.9465 5.45C35.5499 4.49 36.7799 2.96667 37.3599 1.15334C35.8599 2.04334 34.1982 2.69 32.4299 3.03667C31.0132 1.53 28.9965 0.58667 26.7632 0.58667C22.4765 0.58667 18.9999 4.06334 18.9999 8.35334C18.9999 8.96 19.0699 9.55 19.1999 10.12C12.7449 9.795 7.02652 6.70334 3.19652 2.00667C2.52986 3.15667 2.14652 4.49 2.14652 5.91C2.14652 8.60334 3.51819 10.9817 5.59986 12.3733C4.32652 12.3317 3.12986 11.9833 2.08319 11.4017V11.5017C2.08319 15.2633 4.75819 18.4017 8.31152 19.115C7.65819 19.2917 6.97319 19.385 6.26652 19.385C5.76652 19.385 5.27819 19.3383 4.80486 19.2483C5.79319 22.3317 8.65986 24.5783 12.0582 24.6383C9.39986 26.7217 6.05152 27.9633 2.41486 27.9633C1.78819 27.9633 1.16986 27.9267 0.561523 27.855C3.99819 30.06 8.07819 31.3433 12.4615 31.3433C26.7449 31.3433 34.5532 19.5133 34.5532 9.25334C34.5532 8.92 34.5449 8.58334 34.5299 8.25C36.0465 7.15334 37.3632 5.78834 38.4015 4.23334L38.4049 4.22834Z" fill="#1DA1F2"/>
</svg>
