<svg width="23" height="26" viewBox="0 0 23 26" fill="none" xmlns="http://www.w3.org/2000/svg">
<path d="M21.3125 25.5613C21.1162 25.5613 20.9225 25.4988 20.76 25.3813L11.4375 18.5963L2.115 25.3838C1.83 25.5888 1.4525 25.6213 1.1375 25.4588C0.825 25.3 0.625 24.9775 0.625 24.625V3.18628C0.625 1.63628 1.8875 0.373779 3.4375 0.373779H19.435C20.985 0.373779 22.2475 1.63628 22.2475 3.18628V24.6238C22.2475 24.9763 22.05 25.2988 21.735 25.4588C21.6025 25.5275 21.4563 25.5613 21.31 25.5613H21.3125ZM11.4375 16.4988C11.6312 16.4988 11.825 16.5588 11.9875 16.6788L20.375 22.7825V3.18628C20.375 2.67128 19.9537 2.24878 19.4375 2.24878H3.4375C2.92125 2.24878 2.5 2.67128 2.5 3.18628V22.7825L10.8875 16.6788C11.05 16.5588 11.2437 16.4988 11.4375 16.4988V16.4988Z" fill="#1DA1F2"/>
</svg>
