<svg width="27" height="28" viewBox="0 0 27 28" fill="none" xmlns="http://www.w3.org/2000/svg">
<path d="M19.0625 11.9988C17.8563 11.9988 16.875 12.9825 16.875 14.1863C16.875 15.39 17.855 16.3738 19.0625 16.3738C20.2675 16.3738 21.25 15.3913 21.25 14.1863C21.25 12.9813 20.2675 11.9988 19.0625 11.9988ZM19.0625 15.1238C18.545 15.1238 18.125 14.7038 18.125 14.1863C18.125 13.67 18.5463 13.2488 19.0625 13.2488C19.5787 13.2488 20 13.6688 20 14.1863C20 14.7025 19.58 15.1238 19.0625 15.1238ZM13.4375 11.9988C12.23 11.9988 11.25 12.9825 11.25 14.1863C11.25 15.39 12.2313 16.3738 13.4375 16.3738C14.6437 16.3738 15.625 15.3913 15.625 14.1863C15.625 12.9813 14.645 11.9988 13.4375 11.9988ZM13.4375 15.1238C12.92 15.1238 12.5 14.7038 12.5 14.1863C12.5 13.67 12.9213 13.2488 13.4375 13.2488C13.9537 13.2488 14.375 13.6688 14.375 14.1863C14.375 14.7025 13.955 15.1238 13.4375 15.1238ZM7.8125 11.9988C6.60625 11.9988 5.625 12.9825 5.625 14.1863C5.625 15.39 6.60625 16.3738 7.8125 16.3738C9.0175 16.3738 10 15.3913 10 14.1863C10 12.9813 9.01625 11.9988 7.8125 11.9988ZM7.8125 15.1238C7.295 15.1238 6.875 14.7038 6.875 14.1863C6.875 13.67 7.29625 13.2488 7.8125 13.2488C8.32875 13.2488 8.75 13.6688 8.75 14.1863C8.75 14.7025 8.33 15.1238 7.8125 15.1238Z" fill="#1DA1F2"/>
<path d="M13.4375 27.6238C6.0275 27.6238 0 21.5963 0 14.1863C0 6.77628 6.0275 0.748779 13.4375 0.748779C20.8475 0.748779 26.875 6.77628 26.875 14.1863C26.875 21.5963 20.8475 27.6238 13.4375 27.6238ZM13.4375 2.62378C7.0625 2.62378 1.875 7.81128 1.875 14.1863C1.875 20.5613 7.0625 25.7488 13.4375 25.7488C19.8125 25.7488 25 20.5613 25 14.1863C25 7.81128 19.8125 2.62378 13.4375 2.62378Z" fill="#1DA1F2"/>
</svg>
