<svg width="25" height="25" viewBox="0 0 25 25" fill="none" xmlns="http://www.w3.org/2000/svg">
<path d="M23.6875 6.35758H18.775L19.24 1.01758C19.285 0.502583 18.9025 0.0488329 18.3875 0.00258288C17.8663 -0.0349171 17.4175 0.340083 17.3725 0.856333L16.8937 6.35633H8.99375L9.45625 1.01883C9.5025 0.502583 9.11875 0.0488329 8.60625 0.00258288C8.08125 -0.0349171 7.635 0.340083 7.59 0.856333L7.1125 6.35633H2.165C1.6475 6.35633 1.2275 6.77758 1.2275 7.29383C1.2275 7.81008 1.6475 8.23133 2.165 8.23133H6.95L6.2625 16.1401H1.1875C0.67 16.1401 0.25 16.5601 0.25 17.0776C0.25 17.5951 0.67 18.0151 1.1875 18.0151H6.1L5.635 23.3551C5.59 23.8701 5.9725 24.3238 6.4875 24.3701L6.57 24.3738C7.05125 24.3738 7.46 24.0051 7.5025 23.5163L7.98125 18.0163H15.8813L15.4188 23.3538C15.3738 23.8701 15.7563 24.3238 16.2713 24.3701L16.3538 24.3738C16.835 24.3738 17.2437 24.0051 17.2862 23.5163L17.7637 18.0163H22.71C23.2263 18.0163 23.6475 17.5951 23.6475 17.0788C23.6475 16.5626 23.2263 16.1413 22.71 16.1413H17.925L18.6125 8.23258H23.6875C24.205 8.23258 24.625 7.81258 24.625 7.29508C24.625 6.77758 24.205 6.35758 23.6875 6.35758V6.35758ZM16.0438 16.1401H8.14375L8.83125 8.23258H16.7313L16.0438 16.1401Z" fill="#1DA1F2"/>
</svg>
