<svg width="26" height="26" viewBox="0 0 26 26" fill="none" xmlns="http://www.w3.org/2000/svg">
<path d="M23.125 25.6863H3.75C2.2 25.6863 0.9375 24.4238 0.9375 22.8738V3.49878C0.9375 1.94878 2.2 0.686279 3.75 0.686279H23.125C24.675 0.686279 25.9375 1.94878 25.9375 3.49878V22.8738C25.9375 24.4238 24.675 25.6863 23.125 25.6863ZM3.75 2.56128C3.2325 2.56128 2.8125 2.98253 2.8125 3.49878V22.8738C2.8125 23.39 3.2325 23.8113 3.75 23.8113H23.125C23.6425 23.8113 24.0625 23.39 24.0625 22.8738V3.49878C24.0625 2.98253 23.6425 2.56128 23.125 2.56128H3.75Z" fill="#0F1419"/>
<path d="M19.6875 8.98633H7.1875C6.67 8.98633 6.25 8.56508 6.25 8.04883C6.25 7.53258 6.67 7.11133 7.1875 7.11133H19.6875C20.205 7.11133 20.625 7.53008 20.625 8.04883C20.625 8.56758 20.205 8.98633 19.6875 8.98633ZM19.6875 14.1238H7.1875C6.67 14.1238 6.25 13.7038 6.25 13.1863C6.25 12.6688 6.67 12.2488 7.1875 12.2488H19.6875C20.205 12.2488 20.625 12.6688 20.625 13.1863C20.625 13.7038 20.205 14.1238 19.6875 14.1238ZM13.4375 19.2613H7.1875C6.67 19.2613 6.25 18.8426 6.25 18.3238C6.25 17.8051 6.67 17.3863 7.1875 17.3863H13.4375C13.955 17.3863 14.375 17.8076 14.375 18.3238C14.375 18.8401 13.955 19.2613 13.4375 19.2613Z" fill="#0F1419"/>
</svg>
