<svg width="26" height="24" viewBox="0 0 26 24" fill="none" xmlns="http://www.w3.org/2000/svg">
<path d="M22.5 0.958862H4.375C2.47875 0.958862 0.9375 2.50136 0.9375 4.39886V20.0176C0.9375 21.9151 2.47875 23.4589 4.375 23.4589H22.5C24.3962 23.4589 25.9375 21.9151 25.9375 20.0176V4.39886C25.9375 2.50136 24.3962 0.958862 22.5 0.958862ZM4.375 2.83386H22.5C23.3625 2.83386 24.0625 3.53386 24.0625 4.39636V5.28886L14 11.9976C13.6587 12.2226 13.2175 12.2251 12.875 11.9951L2.8125 5.28886V4.39636C2.8125 3.53386 3.5125 2.83386 4.375 2.83386V2.83386ZM22.5 21.5814H4.375C3.5125 21.5814 2.8125 20.8814 2.8125 20.0189V7.48636L11.8625 13.5239C12.3412 13.8439 12.89 14.0039 13.4375 14.0039C13.9875 14.0039 14.5338 13.8439 15.0125 13.5251L24.0625 7.48761V20.0151C24.0625 20.8776 23.3625 21.5776 22.5 21.5776V21.5814Z" fill="#1DA1F2"/>
</svg>
