<svg width="26" height="26" viewBox="0 0 26 26" fill="none" xmlns="http://www.w3.org/2000/svg">
<path d="M25.5587 18.7714C25.5337 18.7514 22.8837 16.7214 22.93 11.2339C22.955 8.06888 21.915 5.25638 19.9962 3.31513C18.2775 1.57388 15.95 0.611377 13.4437 0.598877H13.4275C10.9225 0.611377 8.59498 1.57388 6.87498 3.31638C4.95748 5.25763 3.91498 8.06888 3.94248 11.2339C3.98873 16.6464 1.41748 18.6926 1.31498 18.7714C0.989984 19.0126 0.857484 19.4339 0.983734 19.8189C1.11123 20.2039 1.47123 20.4626 1.87373 20.4626H8.02373C8.15123 23.3501 10.52 25.6626 13.4362 25.6626C16.3525 25.6626 18.7187 23.3501 18.845 20.4626H24.9975C25.4 20.4626 25.76 20.2051 25.885 19.8201C26.0137 19.4364 25.8812 19.0139 25.5562 18.7726L25.5587 18.7714ZM13.4375 23.7839C11.5562 23.7839 10.025 22.3126 9.90248 20.4614H16.9725C16.8475 22.3114 15.3187 23.7864 13.4375 23.7864V23.7839ZM3.91248 18.5864C4.83748 17.1714 5.84748 14.8014 5.81748 11.2164C5.79498 8.51638 6.62248 6.23888 8.20873 4.63263C9.57498 3.24888 11.4337 2.48263 13.4375 2.47388C15.4412 2.48388 17.2962 3.24888 18.6625 4.63388C20.25 6.24013 21.0787 8.51638 21.0562 11.2176C21.0262 14.8026 22.0375 17.1739 22.9625 18.5876H3.91248V18.5864Z" fill="#0F1419"/>
</svg>
