<svg width="28" height="26" viewBox="0 0 28 26" fill="none" xmlns="http://www.w3.org/2000/svg">
<path d="M27.1001 6.96625L14.4688 0.15C14.0976 -0.05 13.6513 -0.05 13.2813 0.15L0.656319 6.96625C0.0488186 7.29625 -0.177431 8.05375 0.150069 8.66125C0.375069 9.08 0.806319 9.3175 1.25007 9.3175C1.45007 9.3175 1.65507 9.27 1.84382 9.1675L2.76132 8.6725L4.74882 22.735C5.01882 24.2525 6.38632 25.3125 8.07382 25.3125H19.6763C21.3638 25.3125 22.7313 24.2525 23.0038 22.7025L24.9888 8.67125L25.9101 9.16875C26.5163 9.4975 27.2751 9.27125 27.6026 8.66375C27.9313 8.05625 27.7026 7.2975 27.0976 6.97L27.1001 6.96625ZM13.8751 17.0725C11.6313 17.0725 9.81257 15.2538 9.81257 13.01C9.81257 10.7663 11.6313 8.9475 13.8751 8.9475C16.1188 8.9475 17.9376 10.7663 17.9376 13.01C17.9376 15.2538 16.1188 17.0725 13.8751 17.0725Z" fill="#1DA1F2"/>
</svg>
