<svg width="22" height="26" viewBox="0 0 22 26" fill="none" xmlns="http://www.w3.org/2000/svg">
<path d="M11.4375 12.9563C13.1313 12.9563 15.0275 12.7688 16.2375 11.3863C17.255 10.2238 17.585 8.42635 17.245 5.89635C16.77 2.3651 14.5988 0.256348 11.4375 0.256348C8.27625 0.256348 6.105 2.3651 5.63 5.89885C5.29 8.42635 5.62 10.2238 6.6375 11.3863C7.8475 12.7701 9.74375 12.9563 11.4375 12.9563V12.9563ZM7.4875 6.14635C7.69 4.64635 8.47125 2.13135 11.4375 2.13135C14.4038 2.13135 15.185 4.6476 15.3875 6.14635C15.6463 8.08385 15.4588 9.4301 14.825 10.1526C14.2563 10.8026 13.2425 11.0813 11.4375 11.0813C9.6325 11.0813 8.61875 10.8026 8.05 10.1526C7.41625 9.4301 7.22875 8.0826 7.4875 6.14635ZM21.7875 22.2313C20.6913 17.8238 16.435 14.7438 11.4375 14.7438C6.44 14.7438 2.18375 17.8238 1.0875 22.2313C0.872504 23.0963 1.0525 23.9813 1.58125 24.6563C2.09125 25.3063 2.88125 25.6813 3.7475 25.6813H19.1275C19.9938 25.6813 20.7838 25.3063 21.2938 24.6563C21.8238 23.9813 22.0025 23.0976 21.7863 22.2313H21.7875ZM19.8175 23.5013C19.66 23.7013 19.4225 23.8088 19.1275 23.8088H3.7475C3.45375 23.8088 3.215 23.7026 3.0575 23.5013C2.88625 23.2838 2.8325 22.9863 2.9075 22.6838C3.795 19.1151 7.30375 16.6213 11.4375 16.6213C15.5713 16.6213 19.08 19.1138 19.9675 22.6838C20.0425 22.9863 19.9888 23.2838 19.8175 23.5013V23.5013Z" fill="#1DA1F2"/>
</svg>
